<?xml version="1.0" encoding="UTF-8"?>
<svg width="24px" height="24px" viewBox="0 0 24 24" version="1.1" xmlns="http://www.w3.org/2000/svg" xmlns:xlink="http://www.w3.org/1999/xlink">
    <!-- Generator: sketchtool 53 (72520) - https://sketchapp.com -->
    <title>6005C06A-3B51-4551-AD79-9B9473A17188</title>
    <desc>Created with sketchtool.</desc>
    <defs>
        <path d="M13.0979444,9.82 L13.0979444,16.8965 C13.0979444,18.0235 12.1514444,18.9405 10.9879444,18.9405 L10.0309444,18.9405 L10.0309444,17.459 C10.0309444,16.2475 9.09444444,15.262 7.94344444,15.262 C6.79444444,15.262 5.85944444,16.2475 5.85944444,17.459 L5.85944444,18.941 L4.89994444,18.941 C3.73594444,18.941 2.78894444,18.024 2.78894444,16.897 L2.78894444,9.82 C2.78894444,7.2895 4.90544444,5.2315 7.50644444,5.2315 L8.38094444,5.2315 C10.9824444,5.2315 13.0979444,7.2895 13.0979444,9.82 L13.0979444,9.82 Z M9.03094444,21.803 C9.03094444,22.463 8.54344444,23 7.94344444,23 C7.34594444,23 6.85944444,22.463 6.85944444,21.803 L6.85944444,17.459 C6.85944444,16.799 7.34594444,16.262 7.94344444,16.262 C8.54344444,16.262 9.03094444,16.799 9.03094444,17.459 L9.03094444,21.803 Z M7.94094444,1 C8.78294444,1 9.46794444,1.661 9.46794444,2.4735 C9.46794444,3.286 8.78294444,3.947 7.94094444,3.947 C7.10194444,3.947 6.41944444,3.286 6.41944444,2.4735 C6.41944444,1.661 7.10194444,1 7.94094444,1 L7.94094444,1 Z M14.9424444,1.9735 L10.4159444,1.9735 C10.1789444,0.8485 9.15944444,0 7.94094444,0 C6.72494444,0 5.70744444,0.8485 5.47144444,1.9735 L0.944444444,1.9735 C0.668444444,1.9735 0.444444444,2.197 0.444444444,2.4735 C0.444444444,2.7495 0.668444444,2.9735 0.944444444,2.9735 L5.47144444,2.9735 C5.58744444,3.5255 5.89844444,4.0025 6.32144444,4.3535 C3.73594444,4.889 1.78894444,7.1355 1.78894444,9.82 L1.78894444,16.897 C1.78894444,18.575 3.18444444,19.941 4.89994444,19.941 L5.85944444,19.941 L5.85944444,21.803 C5.85944444,23.0145 6.79444444,24 7.94344444,24 C9.09444444,24 10.0309444,23.0145 10.0309444,21.803 L10.0309444,19.9405 L10.9879444,19.9405 C12.7029444,19.9405 14.0979444,18.5745 14.0979444,16.8965 L14.0979444,9.82 C14.0979444,7.135 12.1504444,4.8875 9.56444444,4.353 C9.98794444,4.002 10.2994444,3.525 10.4159444,2.9735 L14.9424444,2.9735 C15.2189444,2.9735 15.4424444,2.7495 15.4424444,2.4735 C15.4424444,2.197 15.2189444,1.9735 14.9424444,1.9735 L14.9424444,1.9735 Z" id="path-1"></path>
    </defs>
    <g id="bloomen_desktop" stroke="none" stroke-width="1" fill="none" fill-rule="evenodd">
        <g id="Assets" transform="translate(-255.000000, -154.000000)">
            <g id="material_icons" transform="translate(52.000000, 45.000000)">
                <rect id="bound" stroke="#979797" x="0.5" y="0.5" width="359" height="696"></rect>
                <g id="ic_motorcycle" transform="translate(207.000000, 109.000000)">
                    <mask id="mask-2" fill="white">
                        <use xlink:href="#path-1"></use>
                    </mask>
                    <use id="Fill-1" fill="#000000" xlink:href="#path-1"></use>
                </g>
            </g>
        </g>
    </g>
</svg>