<?xml version="1.0" encoding="UTF-8"?>
<svg width="24px" height="24px" viewBox="0 0 24 24" version="1.1" xmlns="http://www.w3.org/2000/svg" xmlns:xlink="http://www.w3.org/1999/xlink">
    <!-- Generator: sketchtool 53 (72520) - https://sketchapp.com -->
    <title>62F60F4C-3468-4879-A9B6-FD76CC78B6A3</title>
    <desc>Created with sketchtool.</desc>
    <defs>
        <path d="M15.708,14.1095556 C15.708,13.0537431 16.5795,12.1948056 17.650875,12.1948056 C18.7224375,12.1948056 19.5943125,13.0537431 19.5943125,14.1095556 C19.5943125,15.1655556 18.7224375,16.0244931 17.650875,16.0244931 C16.5796875,16.0243056 15.708,15.1653681 15.708,14.1095556 L15.708,14.1095556 Z M12.7490625,7.06855556 L12.7490625,2.09155556 C14.5051875,2.25993056 16.13325,3.01668056 17.3955,4.26543056 C18.2034375,5.06511806 18.8131875,6.02118056 19.188375,7.06836806 L12.7490625,7.06836806 L12.7490625,7.06855556 Z M6.3466875,12.1948056 C7.41825,12.1948056 8.2899375,13.0537431 8.2899375,14.1095556 C8.2899375,15.1655556 7.41825,16.0244931 6.3466875,16.0244931 C5.275125,16.0244931 4.4034375,15.1655556 4.4034375,14.1095556 C4.40325,13.0537431 5.275125,12.1948056 6.3466875,12.1948056 L6.3466875,12.1948056 Z M20.7766875,7.11955556 C20.355,5.64393056 19.5598125,4.29711806 18.4505625,3.19930556 C16.7274375,1.49474306 14.4365625,0.555930556 11.9994375,0.555555556 L11.99925,0.555555556 L11.998875,0.555555556 L11.99775,0.555555556 C7.926375,0.555555556 4.321875,3.28236806 3.220125,7.11486806 C1.398,7.40136806 0,8.98236806 0,10.8836181 L0,11.0441181 C0,12.8563056 1.2710625,14.3744931 2.968125,14.7613056 C3.276,16.3333056 4.672875,17.5243056 6.3466875,17.5243056 C7.98525,17.5243056 9.35775,16.3824306 9.7036875,14.8593681 L11.208,14.8593681 C11.6221875,14.8593681 11.958,14.5235556 11.958,14.1093681 C11.958,13.6951806 11.6221875,13.3593681 11.208,13.3593681 L9.7036875,13.3593681 C9.35775,11.8364931 7.98525,10.6946181 6.3466875,10.6946181 C4.7593125,10.6946181 3.4231875,11.7667431 3.026625,13.2179931 C2.1376875,12.8945556 1.5,12.0436806 1.5,11.0443056 L1.5,10.8838056 C1.5,9.60711806 2.5385625,8.56855556 3.81525,8.56855556 C4.167375,8.56855556 4.4720625,8.32349306 4.547625,7.97961806 C5.248875,4.79005556 8.0045625,2.41611806 11.2490625,2.09549306 L11.2490625,7.06836806 L7.56525,7.06836806 C7.1510625,7.06836806 6.81525,7.40418056 6.81525,7.81836806 C6.81525,8.23255556 7.1510625,8.56836806 7.56525,8.56836806 L20.182875,8.56836806 C21.4605,8.56836806 22.5,9.60786806 22.5,10.8853056 L22.5,11.0422431 C22.5,12.0425556 21.8611875,12.8945556 20.9713125,13.2181806 C20.57475,11.7667431 19.238625,10.6946181 17.6510625,10.6946181 C15.7524375,10.6946181 14.2081875,12.2264931 14.2081875,14.1093681 C14.2081875,15.9924306 15.7524375,17.5243056 17.6510625,17.5243056 C19.324875,17.5243056 20.72175,16.3334931 21.03,14.7614931 C22.727625,14.3748681 24,12.8559306 24,11.0424306 L24,10.8854931 C24,8.98330556 22.5999375,7.40624306 20.7766875,7.11955556 L20.7766875,7.11955556 Z" id="path-1"></path>
    </defs>
    <g id="bloomen_desktop" stroke="none" stroke-width="1" fill="none" fill-rule="evenodd">
        <g id="Assets" transform="translate(-299.000000, -154.000000)">
            <g id="material_icons" transform="translate(52.000000, 45.000000)">
                <rect id="bound" stroke="#979797" x="0.5" y="0.5" width="359" height="696"></rect>
                <g id="ic_car" transform="translate(247.000000, 112.000000)">
                    <mask id="mask-2" fill="white">
                        <use xlink:href="#path-1"></use>
                    </mask>
                    <use id="Fill-1" fill="#FFFFFF" xlink:href="#path-1"></use>
                </g>
            </g>
        </g>
    </g>
</svg>