<?xml version="1.0" encoding="UTF-8"?>
<svg width="24px" height="24px" viewBox="0 0 24 24" version="1.1" xmlns="http://www.w3.org/2000/svg" xmlns:xlink="http://www.w3.org/1999/xlink">
    <!-- Generator: sketchtool 53 (72520) - https://sketchapp.com -->
    <title>352DE2AC-FB42-47AE-9EF2-D2E9CF5F3958</title>
    <desc>Created with sketchtool.</desc>
    <defs>
        <path d="M16.1553296,14.8957087 L16.1553296,10.6197165 C16.1553296,10.3134644 16.4070837,10.0642855 16.7163782,10.0642855 C17.0259181,10.0642855 17.2775495,10.3134644 17.2775495,10.6197165 L17.2775495,14.4891537 L20.8488516,15.611673 C20.9916595,15.6566029 21.1083351,15.7537487 21.177408,15.8856241 C21.2463582,16.017378 21.259363,16.167954 21.2139688,16.3094225 C21.1398657,16.5412366 20.9250404,16.6969126 20.6794206,16.6969126 C20.6216349,16.6969126 20.5644627,16.6880481 20.5092534,16.6705619 L16.5464564,15.4250317 C16.3124919,15.3515652 16.1553296,15.138816 16.1553296,14.8957087 M16.749013,9.73994013 C19.6557185,9.73994013 22.0205145,12.080303 22.0205145,14.9572749 C22.0205145,17.8342467 19.6557185,20.1749739 16.749013,20.1749739 C13.8424302,20.1749739 11.4778796,17.8342467 11.4778796,14.9572749 C11.4778796,12.080303 13.8424302,9.73994013 16.749013,9.73994013 M16.749013,8.62895687 C13.2235959,8.62895687 10.3555369,11.467799 10.3555369,14.9572749 C10.3555369,15.9739053 10.6052054,16.981914 11.0787781,17.879298 L1.12234263,17.8791766 L1.12234263,6.62058962 L19.4351269,6.62058962 L19.4351269,9.2149887 C18.5909161,8.82616278 17.6875702,8.62895687 16.749013,8.62895687 M4.15492517,3.93766645 L4.63463218,3.93766645 C4.89816431,3.93766645 5.11249887,3.72552439 5.11249887,3.46468801 L5.11249887,2.64842072 L15.3419134,2.64842072 L15.3419134,3.46468801 C15.3419134,3.72552439 15.5562479,3.93766645 15.8199027,3.93766645 L16.2996097,3.93766645 C16.5631419,3.93766645 16.7774764,3.72552439 16.7774764,3.46468801 L16.7774764,2.64842072 L19.4348815,2.64842072 L19.4348815,5.50972779 L1.12234263,5.50972779 L1.12234263,2.64842072 L3.67705848,2.64842072 L3.67705848,3.46468801 C3.67705848,3.72552439 3.89139304,3.93766645 4.15492517,3.93766645 M20.5575922,9.87825141 L20.5575922,2.09298981 C20.5575922,1.78661635 20.305838,1.5375589 19.9964209,1.5375589 L16.7777218,1.5375589 L16.7777218,0.758692729 C16.7777218,0.49785635 16.5633873,0.285714286 16.2998551,0.285714286 L15.8201481,0.285714286 C15.5564933,0.285714286 15.3421587,0.49785635 15.3421587,0.758692729 L15.3421587,1.5375589 L5.11249887,1.5375589 L5.11249887,0.758692729 C5.11249887,0.49785635 4.89816431,0.285714286 4.63463218,0.285714286 L4.15492517,0.285714286 C3.89139304,0.285714286 3.67705848,0.49785635 3.67705848,0.758692729 L3.67705848,1.5375589 L0.561171315,1.5375589 C0.251754162,1.5375589 0,1.78661635 0,2.09298981 L0,18.434729 C0,18.740981 0.251754162,18.9901599 0.561171315,18.9901599 L11.7845976,18.9901599 C11.7973571,18.9901599 11.8095031,18.9891884 11.8238575,18.9874884 C13.0461902,20.4485607 14.8392638,21.2857143 16.749013,21.2857143 C20.2745528,21.2857143 23.1428571,18.4467507 23.1428571,14.9572749 C23.1428571,12.9673653 22.1769407,11.07108 20.5575922,9.87825141" id="path-1"></path>
    </defs>
    <g id="bloomen_desktop" stroke="none" stroke-width="1" fill="none" fill-rule="evenodd">
        <g id="Assets" transform="translate(-69.000000, -205.000000)">
            <g id="material_icons" transform="translate(52.000000, 45.000000)">
                <rect id="bound" stroke="#979797" x="0.5" y="0.5" width="359" height="696"></rect>
                <g id="ic_calendar" transform="translate(17.000000, 161.000000)">
                    <mask id="mask-2" fill="white">
                        <use xlink:href="#path-1"></use>
                    </mask>
                    <use fill="#FFF" xlink:href="#path-1"></use>
                </g>
            </g>
        </g>
    </g>
</svg>