<?xml version="1.0" encoding="UTF-8"?>
<svg width="24px" height="24px" viewBox="0 0 24 24" version="1.1" xmlns="http://www.w3.org/2000/svg" xmlns:xlink="http://www.w3.org/1999/xlink">
    <!-- Generator: sketchtool 53 (72520) - https://sketchapp.com -->
    <title>5A739BBB-EB83-41AD-9C25-9AF244B68342</title>
    <desc>Created with sketchtool.</desc>
    <defs>
        <path d="M15.775923,15.9523748 C15.4961053,15.9744247 15.2593784,16.242835 15.2730148,16.5224064 L15.2730148,18.4535448 C15.2689239,18.7407383 15.5304689,19.0064264 15.8184684,19.0064264 C16.1067406,19.0064264 16.3682856,18.7407383 16.363922,18.4535448 L16.363922,16.5224064 L16.363922,16.4627899 C16.3464674,16.1747797 16.0644679,15.9297804 15.775923,15.9523748 L15.775923,15.9523748 Z M14.1821076,21.0135145 L22.9093651,21.0135145 L22.9093651,14.4891849 L14.1821076,14.4891849 L14.1821076,21.0135145 Z M17.5230109,11.4950221 C17.2380114,11.5116276 16.9961027,11.7808545 17.0116481,12.0650536 C17.0271935,12.3492527 17.2977385,12.5983353 17.582738,12.5839076 L19.5259165,12.5839076 C19.8141887,12.5879909 20.0798246,12.3269306 20.0798246,12.0394648 C20.0798246,11.751999 19.8141887,11.4909387 19.5259165,11.4950221 L17.582738,11.4950221 L17.5230109,11.4950221 Z M14.1821076,13.4005717 L22.9093651,13.4005717 L22.9093651,10.6783579 L14.1821076,10.6783579 L14.1821076,13.4005717 Z M1.09094853,13.4005717 L13.0912004,13.4005717 L13.0912004,10.6783579 L1.09094853,10.6783579 L1.09094853,13.4005717 Z M1.09094853,7.41197371 L10.9091133,7.41197371 L10.9091133,1.42337576 L1.09094853,1.42337576 L1.09094853,7.41197371 Z M0.494495021,0.334490274 C0.213313692,0.361167969 -0.00104957201,0.597183898 4.13351843e-05,0.878933017 L4.13351843e-05,7.95641646 C0.000314061983,8.25694885 0.244404547,8.50058698 0.545494932,8.5008592 L5.45485003,8.5008592 L5.45485003,9.58947246 L0.545494932,9.58947246 L0.494495021,9.58947246 C0.226404578,9.61478905 -0.00104957201,9.86550493 4.13351843e-05,10.1339152 L4.13351843e-05,13.9447422 L4.13351843e-05,14.0043587 L4.13351843e-05,21.5582295 C-0.00377683999,21.8454231 0.257495433,22.1111111 0.545494932,22.1111111 C0.833767158,22.1111111 1.09531216,21.8454231 1.09094853,21.5582295 L1.09094853,14.4891849 L13.0912004,14.4891849 L13.0912004,21.5582295 C13.0912004,21.6499681 13.1149276,21.7417067 13.1593821,21.822012 L13.1678366,21.8304509 C13.2090184,21.9047673 13.2679273,21.969556 13.3382909,22.017467 C13.3440181,22.0204614 13.3497454,22.0231836 13.3554727,22.0259058 C13.3666545,22.0318947 13.378109,22.0376113 13.3895635,22.0427835 L13.4064726,22.0512224 C13.4176544,22.0572113 13.4293816,22.0629279 13.4405634,22.0683724 L13.4577452,22.0683724 C13.468927,22.0743612 13.4803815,22.0800779 13.4918361,22.0852501 L13.5087451,22.0852501 C13.5199269,22.0885167 13.5316542,22.091239 13.542836,22.0936889 C13.5681996,22.0983167 13.5938359,22.1010389 13.6197449,22.1021278 L13.6363813,22.1021278 L13.653563,22.1021278 L23.454546,22.1021278 L23.5058186,22.1021278 C23.5614549,22.0964112 23.616273,22.0819834 23.6678184,22.0596613 C23.8636362,21.9766338 24.0002723,21.7700177 23.9999996,21.5576851 L23.9999996,10.133643 L23.9999996,10.0824654 C23.9828178,9.92158254 23.8892725,9.77022745 23.7529091,9.68257217 C23.7365455,9.67032221 23.7193637,9.65888891 23.7019092,9.6485445 C23.6850001,9.64201119 23.6678184,9.63656676 23.6506366,9.63139455 C23.6176366,9.61696682 23.5835458,9.60553352 23.548364,9.59736688 C23.5175459,9.59192246 23.4861823,9.58920024 23.454546,9.58920024 L6.54521177,9.58920024 L6.54521177,8.50031476 L11.4545669,8.50031476 C11.7556573,8.50031476 12.0000205,8.25640441 12.0000205,7.95587201 L12.0000205,0.878388574 C12.0000205,0.577583959 11.7556573,0.333945831 11.4545669,0.333945831 L0.545222205,0.333945831 C0.528313144,0.333129167 0.511131355,0.333129167 0.494222294,0.333945831 L0.494495021,0.334490274 Z" id="path-1"></path>
    </defs>
    <g id="bloomen_desktop" stroke="none" stroke-width="1" fill="none" fill-rule="evenodd">
        <g id="Assets" transform="translate(-347.000000, -154.000000)">
            <g id="material_icons" transform="translate(52.000000, 45.000000)">
                <rect id="bound" stroke="#979797" x="0.5" y="0.5" width="359" height="696"></rect>
                <g id="ic_desktop" transform="translate(295.000000, 110.000000)">
                    <mask id="mask-2" fill="white">
                        <use xlink:href="#path-1"></use>
                    </mask>
                    <use id="Fill-1" fill="#FFF" xlink:href="#path-1"></use>
                </g>
            </g>
        </g>
    </g>
</svg>