<?xml version="1.0" encoding="UTF-8"?>
<svg width="24px" height="24px" viewBox="0 0 24 24" version="1.1" xmlns="http://www.w3.org/2000/svg" xmlns:xlink="http://www.w3.org/1999/xlink">
    <!-- Generator: sketchtool 53 (72520) - https://sketchapp.com -->
    <title>0AF40925-64CF-4C9B-9888-6177C62E9015</title>
    <desc>Created with sketchtool.</desc>
    <defs>
        <path d="M6.90643962,21.6510288 L15.1438909,21.6510288 C15.3667047,21.6510288 15.5473563,21.4681186 15.5473563,21.242519 C15.5473563,21.0169195 15.3667047,20.8340092 15.1438909,20.8340092 L6.90643962,20.8340092 C6.68362587,20.8340092 6.50297426,21.0169195 6.50297426,21.242519 C6.50297426,21.4681186 6.68362587,21.6510288 6.90643962,21.6510288 L6.90643962,21.6510288 Z M6.90643962,20.1191171 L15.1438909,20.1191171 C15.3667047,20.1191171 15.5473563,19.9362068 15.5473563,19.7106073 C15.5473563,19.4850078 15.3667047,19.3020975 15.1438909,19.3020975 L6.90643962,19.3020975 C6.68362587,19.3020975 6.50297426,19.4850078 6.50297426,19.7106073 C6.50297426,19.9362068 6.68362587,20.1191171 6.90643962,20.1191171 L6.90643962,20.1191171 Z M6.90643962,18.5872054 L10.100574,18.5872054 C10.3233877,18.5872054 10.5040393,18.4042951 10.5040393,18.1786956 C10.5040393,17.9530961 10.3233877,17.7701858 10.100574,17.7701858 L6.90643962,17.7701858 C6.68362587,17.7701858 6.50297426,17.9530961 6.50297426,18.1786956 C6.50297426,18.4042951 6.68362587,18.5872054 6.90643962,18.5872054 L6.90643962,18.5872054 Z M17.0771456,9.80848317 C17.367792,9.80848317 17.6034157,10.0470529 17.6034157,10.3413331 C17.6034157,10.6356134 17.367792,10.8741831 17.0771456,10.8741831 C16.7864993,10.8741831 16.5508755,10.6356134 16.5508755,10.3413331 C16.5511781,10.0472061 16.7866001,9.80884061 17.0771456,9.80848317 L17.0771456,9.80848317 Z M15.7439448,10.3413331 C15.7439448,11.0868635 16.3408213,11.6912027 17.0771456,11.6912027 C17.8134699,11.6912027 18.4103464,11.0868635 18.4103464,10.3413331 C18.4103464,9.59580276 17.8134699,8.99146359 17.0771456,8.99146359 C16.3411744,8.99228061 15.7447517,9.5961602 15.7439448,10.3413331 L15.7439448,10.3413331 Z M20.8596333,9.31428845 L20.8596333,12.4595585 L1.14026405,12.4595585 L1.14026405,9.31428845 C1.15115761,8.68513231 1.65362328,8.17858017 2.27501036,8.17020572 L19.7753202,8.17020572 C20.387125,8.17020572 20.8596333,8.69483441 20.8596333,9.31428845 L20.8596333,9.31428845 Z M19.7753202,17.1063574 L18.8423065,17.1063574 L18.8423065,15.6293902 C18.8347416,15.3998077 18.6489458,15.2175102 18.4220469,15.2169996 L3.6282836,15.2169996 C3.40138477,15.2175102 3.2156394,15.3998077 3.208024,15.6293902 L3.208024,17.1063574 L2.27501036,17.1063574 C1.66320558,17.1063574 1.14026405,16.6062903 1.14026405,15.9868363 L1.14026405,13.2765781 L20.8596333,13.2765781 L20.8596333,15.9868363 C20.8596333,16.6062903 20.387125,17.1063574 19.7753202,17.1063574 L19.7753202,17.1063574 Z M4.01495471,23.1829405 L18.0353758,23.1829405 L18.0353758,16.0340192 L4.01495471,16.0340192 L4.01495471,23.1829405 Z M5.42708345,2.06201413 C5.42708345,1.37362407 6.01614287,0.817029481 6.7484325,0.817029481 L13.3450911,0.817029481 L13.3450911,3.01067599 C13.3450911,3.69283628 13.9186675,4.23829898 14.6185286,4.23829898 L16.6232471,4.23829898 L16.6232471,7.35318613 L5.42708345,7.35318613 L5.42708345,2.06201413 Z M14.1520218,1.46778558 L16.0488133,3.4212794 L14.6185286,3.4212794 C14.3638411,3.4212794 14.1520218,3.24255636 14.1520218,3.01067599 L14.1520218,1.46778558 Z M17.3285045,3.59234287 C17.3093399,3.56604505 17.2870485,3.54224936 17.2621345,3.52141536 L14.082777,0.222698799 C14.0576109,0.186086109 14.0266954,0.1538649 13.9912408,0.127362827 L13.9835246,0.121133053 C13.9074713,0.0429544914 13.8034277,-0.000756056228 13.6950468,9.89962936e-06 L6.7484325,9.89962936e-06 C5.57122145,9.89962936e-06 4.62015274,0.922884581 4.62015274,2.06201413 L4.62015274,7.35318613 L2.27501036,7.35318613 C1.21828416,7.35318613 0.333333333,8.24435024 0.333333333,9.31428845 L0.333333333,15.9868363 C0.333333333,17.0567745 1.21828416,17.923377 2.27501036,17.923377 L3.208024,17.923377 L3.208024,23.5953312 C3.21629504,23.8233818 3.40289776,24.003075 3.6282836,23.9999601 L18.4220469,23.9999601 C18.6474328,24.003075 18.8340355,23.8233818 18.8423065,23.5953312 L18.8423065,17.923377 L19.7753202,17.923377 C20.8213041,17.9218961 21.668077,17.0621873 21.6666649,16.0030746 C21.6666649,15.9976618 21.6666145,15.9922491 21.666564,15.9868363 L21.666564,9.31428845 C21.666564,8.24435024 20.8320464,7.35344145 19.7753202,7.35344145 L17.4301778,7.35344145 L17.4301778,3.8672189 C17.4313882,3.76595953 17.3951267,3.66786612 17.3285045,3.59234287 L17.3285045,3.59234287 Z" id="path-1"></path>
    </defs>
    <g id="bloomen_desktop" stroke="none" stroke-width="1" fill="none" fill-rule="evenodd">
        <g id="Assets" transform="translate(-133.000000, -206.000000)">
            <g id="material_icons" transform="translate(52.000000, 45.000000)">
                <rect id="bound" stroke="#979797" x="0.5" y="0.5" width="359" height="696"></rect>
                <g id="ic_printer" transform="translate(82.000000, 161.000000)">
                    <mask id="mask-2" fill="white">
                        <use xlink:href="#path-1"></use>
                    </mask>
                    <use id="Fill-1" fill="#FFF" xlink:href="#path-1"></use>
                </g>
            </g>
        </g>
    </g>
</svg>