<?xml version="1.0" encoding="UTF-8"?>
<svg width="24px" height="24px" viewBox="0 0 24 24" version="1.1" xmlns="http://www.w3.org/2000/svg" xmlns:xlink="http://www.w3.org/1999/xlink">
    <!-- Generator: sketchtool 53 (72520) - https://sketchapp.com -->
    <title>36B87906-4B93-4E17-8262-05FDC7516EC2</title>
    <desc>Created with sketchtool.</desc>
    <defs>
        <path d="M3.33333333,18.6666667 C4.20213333,18.6666667 4.94133333,19.2245333 5.2168,20 L3.33333333,20 C2.96506667,20 2.66666667,20.2984 2.66666667,20.6666667 C2.66666667,21.0349333 2.96506667,21.3333333 3.33333333,21.3333333 L5.2168,21.3333333 C4.94133333,22.1088 4.2024,22.6666667 3.33333333,22.6666667 C2.2304,22.6666667 1.33333333,21.7696 1.33333333,20.6666667 C1.33333333,19.5637333 2.2304,18.6666667 3.33333333,18.6666667 L3.33333333,18.6666667 Z M20.0197333,20.8282667 C20.0954667,21.1312 20.3674667,21.3333333 20.6661333,21.3333333 C20.7197333,21.3333333 20.7741333,21.3269333 20.8282667,21.3133333 C21.1856,21.224 21.4024,20.8621333 21.3133333,20.5048 L20.8562667,18.6762667 C21.8704,18.7722667 22.6666667,19.6277333 22.6666667,20.6666667 C22.6666667,21.7696 21.7696,22.6666667 20.6666667,22.6666667 C19.5637333,22.6666667 18.6666667,21.7696 18.6666667,20.6666667 C18.6666667,19.9717333 19.0232,19.3589333 19.5629333,19.0005333 L20.0197333,20.8282667 Z M3.33333333,24 C4.9432,24 6.28986667,22.8530667 6.59946667,21.3333333 L14,21.3333333 C14.1768,21.3333333 14.3464,21.2632 14.4714667,21.1381333 L18.972,16.6373333 L19.2288,17.664 C18.1096,18.2024 17.3333333,19.344 17.3333333,20.6666667 C17.3333333,22.5048 18.8285333,24 20.6666667,24 C22.5048,24 24,22.5048 24,20.6666667 C24,18.8285333 22.5048,17.3333333 20.6666667,17.3333333 C20.6178667,17.3333333 20.5706667,17.3386667 20.5224,17.3405333 L16.3136,0.505066667 C16.2392,0.208266667 15.9725333,0 15.6666667,0 L13.3333333,0 C12.9650667,0 12.6666667,0.2984 12.6666667,0.666666667 C12.6666667,1.03493333 12.9650667,1.33333333 13.3333333,1.33333333 L15.1461333,1.33333333 L18.5949333,15.1290667 L13.724,20 L6.59946667,20 C6.28986667,18.4802667 4.9432,17.3333333 3.33333333,17.3333333 C1.4952,17.3333333 0,18.8285333 0,20.6666667 C0,22.5048 1.4952,24 3.33333333,24 L3.33333333,24 Z" id="path-1"></path>
    </defs>
    <g id="bloomen_desktop" stroke="none" stroke-width="1" fill="none" fill-rule="evenodd">
        <g id="Assets" transform="translate(-163.000000, -155.000000)">
            <g id="material_icons" transform="translate(52.000000, 45.000000)">
                <rect id="bound" stroke="#979797" x="0.5" y="0.5" width="359" height="696"></rect>
                <g id="ic_scooter" transform="translate(111.000000, 110.000000)">
                    <mask id="mask-2" fill="white">
                        <use xlink:href="#path-1"></use>
                    </mask>
                    <use id="Fill-1" fill="#FFFFFF" xlink:href="#path-1"></use>
                </g>
            </g>
        </g>
    </g>
</svg>