<?xml version="1.0" encoding="UTF-8"?>
<svg width="24px" height="24px" viewBox="0 0 24 24" version="1.1" xmlns="http://www.w3.org/2000/svg" xmlns:xlink="http://www.w3.org/1999/xlink">
    <!-- Generator: sketchtool 53 (72520) - https://sketchapp.com -->
    <title>FC0AF327-D8AB-4DF7-AB99-F527ADECD70A</title>
    <desc>Created with sketchtool.</desc>
    <defs>
        <path d="M7.72695944,14.8720162 C7.76515223,14.8536786 7.81068007,14.8436878 7.86581934,14.8486199 C7.92070568,14.8436878 7.96610705,14.8535521 8.00417339,14.8720162 C9.09165639,15.0766385 9.49192197,16.4452559 8.54747226,17.0976952 L8.54747226,18.3870182 C8.54747226,18.5418129 8.41847671,18.6705555 8.263935,18.6705555 L7.46770369,18.6705555 C7.31316197,18.6705555 7.1842929,18.54156 7.1842929,18.3870182 L7.1842929,17.0979481 C6.23857852,16.4466471 6.64074109,15.0766385 7.72695944,14.8720162 L7.72695944,14.8720162 Z M1.29514054,20.8398305 L14.4362452,20.8398305 L14.4362452,12.6780802 L1.29514054,12.6780802 L1.29514054,20.8398305 Z M18.4994783,0.333333333 L18.4993519,0.3334598 L17.8873818,0.3334598 C14.8569983,0.336621455 12.3868602,2.80701255 12.383572,5.83726959 L12.383572,11.3863543 L0.971260552,11.3863543 C0.437067248,11.3863543 0,11.823548 0,12.3576148 L0,21.1668722 C0,21.7010655 0.437067248,22.1381327 0.971260552,22.1381327 L14.7599987,22.1381327 C15.294192,22.1381327 15.7312593,21.7010655 15.7312593,21.1668722 L15.7312593,12.3544532 C15.7312593,11.8201334 15.294192,11.3830662 14.7599987,11.3830662 L13.6754245,11.3830662 L13.6754245,5.83726959 C13.6754245,4.68136836 14.1481552,3.63245755 14.9121376,2.86518701 C15.6794081,2.10120459 16.7284454,1.6283474 17.8842202,1.6283474 L18.4961902,1.6283474 C19.651965,1.6283474 20.7010022,2.10107812 21.4682728,2.86518701 C22.2323817,3.63233109 22.7049859,4.68136836 22.7049859,5.83726959 L22.7049859,11.5806064 L24,11.5806064 L24,5.83714313 C24,2.8034715 21.5297354,0.333333333 18.4994783,0.333333333 L18.4994783,0.333333333 Z" id="path-1"></path>
    </defs>
    <g id="bloomen_desktop" stroke="none" stroke-width="1" fill="none" fill-rule="evenodd">
        <g id="Assets" transform="translate(-211.000000, -154.000000)">
            <g id="material_icons" transform="translate(52.000000, 45.000000)">
                <rect id="bound" stroke="#979797" x="0.5" y="0.5" width="359" height="696"></rect>
                <g id="ic_unlock" transform="translate(159.000000, 110.000000)">
                    <mask id="mask-2" fill="white">
                        <use xlink:href="#path-1"></use>
                    </mask>
                    <use id="Fill-1" fill="#FFFFFF" xlink:href="#path-1"></use>
                </g>
            </g>
        </g>
    </g>
</svg>