<?xml version="1.0" encoding="UTF-8"?>
<svg width="24px" height="24px" viewBox="0 0 24 24" version="1.1" xmlns="http://www.w3.org/2000/svg" xmlns:xlink="http://www.w3.org/1999/xlink">
    <!-- Generator: sketchtool 53 (72520) - https://sketchapp.com -->
    <title>48DCE888-2C3C-4518-8531-FCB5BFAAAF0E</title>
    <desc>Created with sketchtool.</desc>
    <defs>
        <path d="M22.3783784,14.7554361 L19.5405405,14.7554361 C18.8537838,14.7554361 18.297027,14.1898661 18.297027,13.4918995 C18.297027,12.7942075 18.8537838,12.2283628 19.5405405,12.2283628 L22.3783784,12.2283628 L22.3783784,14.7554361 Z M20.5675676,18.9034071 C20.5675676,19.5101794 20.0835135,20.0021346 19.4864865,20.0021346 L2.62135135,20.0021346 C2.06918919,20.0021346 1.62162162,19.546712 1.62162162,18.985537 L1.62162162,6.76219353 C2.06297297,6.99841994 2.55486486,7.12120274 3.05378378,7.11927997 L19.4864865,7.11927997 C20.0835135,7.11927997 20.5675676,7.61123521 20.5675676,8.21800747 L20.5675676,10.5802716 L19.5405405,10.5802716 C17.9583784,10.5802716 16.6754054,11.8839118 16.6754054,13.4918995 C16.6754054,15.1001619 17.9583784,16.4035274 19.5405405,16.4035274 L20.5675676,16.4035274 L20.5675676,18.9034071 Z M3.05378378,2.55956084 L8.43216216,2.55956084 L5.08081081,5.49865691 L3.05378378,5.49865691 C2.25540541,5.49865691 1.60783784,4.84079381 1.60783784,4.02910887 C1.60783784,3.21769861 2.25540541,2.55956084 3.05378378,2.55956084 L3.05378378,2.55956084 Z M11.5675676,1.9827289 L14.5405405,5.49865691 L7.56756757,5.49865691 L11.5675676,1.9827289 Z M16.9189189,2.55956084 C17.5159459,2.55956084 18,3.05151608 18,3.65828834 L18,5.49865691 L16.7027027,5.49865691 L14.2162162,2.55956084 L16.9189189,2.55956084 Z M23.1891892,10.5802716 L22.1891892,10.5802716 L22.1891892,8.24547566 C22.1910811,6.78059722 21.0610811,5.57199697 19.6216216,5.49865691 L19.6216216,3.65828834 C19.6216216,2.14122034 18.4113514,0.911469589 16.9189189,0.911469589 L12.8108108,0.911469589 L12.2702703,0.279701276 C11.9775676,-0.058432112 11.4718919,-0.0949648014 11.1348649,0.197296714 L10.3240541,0.911469589 L3.05378378,0.911469589 C1.3672973,0.911469589 0,2.3010852 0,4.01537478 L0,4.20765209 L0,19.0130052 C0,20.484476 1.17351351,21.6774194 2.62135135,21.6774194 L19.4864865,21.6774194 C20.9789189,21.6774194 22.1891892,20.4476686 22.1891892,18.9306006 L22.1891892,16.4312702 L23.1891892,16.4312702 C23.6367568,16.4312702 24,16.0620978 24,15.6072246 L24,11.4043172 C24,10.949444 23.6367568,10.5802716 23.1891892,10.5802716 L23.1891892,10.5802716 Z" id="path-1"></path>
    </defs>
    <g id="bloomen_desktop" stroke="none" stroke-width="1" fill="none" fill-rule="evenodd">
        <g id="Assets" transform="translate(-115.000000, -155.000000)">
            <g id="material_icons" transform="translate(52.000000, 45.000000)">
                <rect id="bound" stroke="#979797" x="0.5" y="0.5" width="359" height="696"></rect>
                <g id="ic_wallet" transform="translate(63.000000, 111.000000)">
                    <mask id="mask-2" fill="white">
                        <use xlink:href="#path-1"></use>
                    </mask>
                    <use id="Fill-1" fill="#fff" xlink:href="#path-1"></use>
                </g>
            </g>
        </g>
    </g>
</svg>