<?xml version="1.0" encoding="UTF-8"?>
<svg width="72px" height="80px" viewBox="0 0 72 80" version="1.1" xmlns="http://www.w3.org/2000/svg" xmlns:xlink="http://www.w3.org/1999/xlink">
    <!-- Generator: sketchtool 55.2 (78181) - https://sketchapp.com -->
    <title>312AF5E5-C878-47ED-8CA7-0355663A729B</title>
    <desc>Created with sketchtool.</desc>
    <g id="bloomen" stroke="none" stroke-width="1" fill="none" fill-rule="evenodd">
        <g id="Assets" transform="translate(-5744.000000, -1394.000000)">
            <g id="images" transform="translate(281.000000, 326.000000)"></g>
            <path d="M5772.75,1429 L5791.5,1429 C5792.19031,1429 5792.75,1428.44031 5792.75,1427.75 C5792.75,1427.05969 5792.19031,1426.5 5791.5,1426.5 L5772.75,1426.5 C5772.05969,1426.5 5771.5,1427.05969 5771.5,1427.75 C5771.5,1428.44031 5772.05969,1429 5772.75,1429 M5796.5,1439 L5772.75,1439 C5772.05969,1439 5771.5,1439.55969 5771.5,1440.25 C5771.5,1440.94031 5772.05969,1441.5 5772.75,1441.5 L5796.5,1441.5 C5797.19031,1441.5 5797.75,1440.94031 5797.75,1440.25 C5797.75,1439.55969 5797.19031,1439 5796.5,1439 M5795.25,1434 C5795.25,1433.30969 5794.69031,1432.75 5794,1432.75 L5769,1432.75 C5768.30969,1432.75 5767.75,1433.30969 5767.75,1434 C5767.75,1434.69031 5768.30969,1435.25 5769,1435.25 L5794,1435.25 C5794.69031,1435.25 5795.25,1434.69031 5795.25,1434 M5815.24375,1411.37641 C5815.24203,1411.35859 5815.23859,1411.34141 5815.23609,1411.32391 C5815.23281,1411.30109 5815.23016,1411.27828 5815.22563,1411.25547 C5815.22156,1411.235 5815.21594,1411.21516 5815.21094,1411.195 C5815.20609,1411.17563 5815.20187,1411.15609 5815.19609,1411.13687 C5815.19016,1411.11719 5815.18266,1411.09797 5815.17578,1411.07859 C5815.16891,1411.05938 5815.16266,1411.04016 5815.15484,1411.02125 C5815.14734,1411.00328 5815.13859,1410.98594 5815.13031,1410.96844 C5815.12125,1410.94906 5815.1125,1410.92953 5815.10234,1410.91047 C5815.09328,1410.89359 5815.08297,1410.87766 5815.07328,1410.86125 C5815.06219,1410.84266 5815.05156,1410.82375 5815.03938,1410.80562 C5815.0275,1410.78797 5815.01422,1410.77125 5815.00156,1410.75422 C5814.98984,1410.73859 5814.97906,1410.7225 5814.96656,1410.70734 C5814.94281,1410.67844 5814.9175,1410.65078 5814.89125,1410.62406 C5814.88859,1410.62141 5814.88656,1410.61844 5814.88391,1410.61594 L5798.63391,1394.36594 C5798.63359,1394.36562 5798.63313,1394.36531 5798.63281,1394.365 C5798.59375,1394.32609 5798.55141,1394.29078 5798.5075,1394.25719 C5798.49734,1394.24953 5798.48734,1394.24172 5798.47703,1394.23438 C5798.43266,1394.2025 5798.38672,1394.17297 5798.33844,1394.14719 C5798.33484,1394.14531 5798.33109,1394.14375 5798.3275,1394.14188 C5798.28187,1394.11812 5798.23422,1394.0975 5798.18547,1394.07938 C5798.17547,1394.07578 5798.16562,1394.07188 5798.15563,1394.06844 C5798.10344,1394.05047 5798.05,1394.03516 5797.99484,1394.02422 C5797.99328,1394.02391 5797.99156,1394.02375 5797.98984,1394.02344 C5797.93922,1394.01359 5797.88734,1394.00766 5797.83484,1394.00406 C5797.82063,1394.00312 5797.80641,1394.00234 5797.79219,1394.00187 C5797.77812,1394.00172 5797.76422,1394 5797.75,1394 L5756.5,1394 C5754.43219,1394 5752.75,1395.68234 5752.75,1397.75 L5752.75,1451.49984 C5752.75,1452.19016 5753.30969,1452.74984 5754,1452.74984 C5754.69031,1452.74984 5755.25,1452.19016 5755.25,1451.49984 L5755.25,1397.75 C5755.25,1397.06078 5755.81078,1396.5 5756.5,1396.5 L5796.5,1396.5 L5796.5,1409 C5796.5,1411.06766 5798.18234,1412.75 5800.25,1412.75 L5807.74984,1412.75 C5808.44016,1412.75 5808.99984,1412.19031 5808.99984,1411.5 C5808.99984,1410.80969 5808.44016,1410.25 5807.74984,1410.25 L5800.25,1410.25 C5799.56078,1410.25 5799,1409.68922 5799,1409 L5799,1398.26766 L5812.75,1412.01766 L5812.75,1470.25 C5812.75,1470.93922 5812.18922,1471.5 5811.5,1471.5 L5757.75047,1471.5 C5757.06016,1471.5 5756.50047,1472.05969 5756.50047,1472.75 C5756.50047,1473.44031 5757.06016,1474 5757.75047,1474 L5811.5,1474 C5813.56781,1474 5815.25,1472.31766 5815.25,1470.25 L5815.25,1411.50031 C5815.25,1411.45906 5815.24781,1411.41766 5815.24375,1411.37641 M5763.26766,1458.26781 L5763.26766,1458.26781 L5750.76766,1470.7675 C5749.79281,1471.74266 5748.20672,1471.74219 5747.23219,1470.76781 C5746.76,1470.29562 5746.5,1469.66766 5746.5,1469 C5746.5,1468.33219 5746.76,1467.70438 5747.23219,1467.23234 L5759.73219,1454.73219 C5760.20438,1454.26016 5760.83219,1454 5761.49984,1454 C5762.1675,1454 5762.79547,1454.26 5763.26766,1454.73234 C5763.74,1455.20438 5764,1455.83219 5764,1456.5 C5764,1457.16766 5763.74,1457.79562 5763.26766,1458.26781 M5784,1415.25 C5794.33875,1415.25 5802.75,1423.66125 5802.75,1434 C5802.75,1444.33875 5794.33875,1452.75 5784,1452.75 C5773.66125,1452.75 5765.25,1444.33875 5765.25,1434 C5765.25,1423.66125 5773.66125,1415.25 5784,1415.25 M5765.03563,1460.03547 C5765.97984,1459.09109 5766.5,1457.83547 5766.5,1456.5 C5766.5,1455.59172 5766.25906,1454.72094 5765.80828,1453.95953 L5769.89188,1449.87594 C5773.64703,1453.21688 5778.59016,1455.25 5784,1455.25 C5795.71734,1455.25 5805.25,1445.71719 5805.25,1434 C5805.25,1422.28281 5795.71734,1412.75 5784,1412.75 C5772.28266,1412.75 5762.75,1422.28281 5762.75,1434 C5762.75,1439.40984 5764.78312,1444.35281 5768.12391,1448.10812 L5764.04031,1452.19172 C5763.27891,1451.74094 5762.40812,1451.5 5761.5,1451.5 C5760.16438,1451.5 5758.90891,1452.02 5757.96453,1452.96438 L5745.46453,1465.46438 C5744.52016,1466.40875 5744,1467.66438 5744,1469 C5744,1470.33547 5744.52016,1471.59109 5745.46453,1472.53562 C5746.43922,1473.51031 5747.71969,1473.9975 5749,1473.9975 C5750.28031,1473.9975 5751.56078,1473.51016 5752.53547,1472.53562 L5765.03563,1460.03547 C5765.03547,1460.03562 5765.03547,1460.03562 5765.03563,1460.03547 M5787.4475,1420.68547 C5792.69344,1422.03953 5796.6625,1426.36453 5797.55922,1431.70422 C5797.66187,1432.315 5798.19109,1432.74734 5798.79047,1432.74734 C5798.85922,1432.74734 5798.92891,1432.74172 5798.99906,1432.73 C5799.67984,1432.61562 5800.13906,1431.97109 5800.02469,1431.29016 C5798.96453,1424.97813 5794.27281,1419.86547 5788.07219,1418.265 C5787.40297,1418.09219 5786.72188,1418.49453 5786.54937,1419.16297 C5786.37719,1419.83109 5786.77922,1420.51297 5787.4475,1420.68547" id="img_nodata" fill="#000000"></path>
        </g>
    </g>
</svg>