<?xml version="1.0" encoding="UTF-8"?>
<svg width="24px" height="24px" viewBox="0 0 24 24" version="1.1" xmlns="http://www.w3.org/2000/svg" xmlns:xlink="http://www.w3.org/1999/xlink">
    <!-- Generator: sketchtool 52.4 (67378) - http://www.bohemiancoding.com/sketch -->
    <title>7F99606C-07C4-4F55-9548-9135B4DB46BE</title>
    <desc>Created with sketchtool.</desc>
    <defs>
        <path d="M11.9,10 C11.9,9.724 12.124,9.5 12.4,9.5 L15.075,9.5 C15.351,9.5 15.575,9.724 15.575,10 C15.575,10.276 15.351,10.5 15.075,10.5 L12.4,10.5 C12.124,10.5 11.9,10.276 11.9,10 Z M5.424,7.1 L7.099,7.1 L7.099,5.425 L5.424,5.425 L5.424,7.1 Z M4.424,7.6 L4.424,4.925 C4.424,4.648 4.648,4.425 4.924,4.425 L7.599,4.425 C7.876,4.425 8.099,4.648 8.099,4.925 L8.099,7.6 C8.099,7.876 7.876,8.1 7.599,8.1 L4.924,8.1 C4.648,8.1 4.424,7.876 4.424,7.6 Z M12.9,14.575 L14.575,14.575 L14.575,12.9 L12.9,12.9 L12.9,14.575 Z M11.9,15.075 L11.9,12.4 C11.9,12.124 12.124,11.9 12.4,11.9 L15.075,11.9 C15.351,11.9 15.575,12.124 15.575,12.4 L15.575,15.075 C15.575,15.351 15.351,15.575 15.075,15.575 L12.4,15.575 C12.124,15.575 11.9,15.351 11.9,15.075 Z M12.9,7.1 L14.575,7.1 L14.575,5.425 L12.9,5.425 L12.9,7.1 Z M11.9,7.6 L11.9,4.925 C11.9,4.648 12.124,4.425 12.4,4.425 L15.075,4.425 C15.351,4.425 15.575,4.648 15.575,4.925 L15.575,7.6 C15.575,7.876 15.351,8.1 15.075,8.1 L12.4,8.1 C12.124,8.1 11.9,7.876 11.9,7.6 Z M7.099,15.075 C7.099,14.798 7.324,14.575 7.599,14.575 L9.5,14.575 L9.5,12.9 L7.599,12.9 C7.324,12.9 7.099,12.676 7.099,12.4 C7.099,12.124 7.324,11.9 7.599,11.9 L10,11.9 C10.276,11.9 10.5,12.124 10.5,12.4 L10.5,15.075 C10.5,15.351 10.276,15.575 10,15.575 L7.599,15.575 C7.324,15.575 7.099,15.351 7.099,15.075 Z M4.424,15.075 L4.424,10 C4.424,9.724 4.648,9.5 4.924,9.5 L9.5,9.5 L9.5,4.925 C9.5,4.648 9.723,4.425 10,4.425 C10.276,4.425 10.5,4.648 10.5,4.925 L10.5,10 C10.5,10.276 10.276,10.5 10,10.5 L5.424,10.5 L5.424,15.075 C5.424,15.351 5.201,15.575 4.924,15.575 C4.648,15.575 4.424,15.351 4.424,15.075 Z M0,5.511 L0,0.5 C0,0.224 0.223,0 0.5,0 L5.511,0 C5.788,0 6.011,0.224 6.011,0.5 C6.011,0.776 5.788,1 5.511,1 L1,1 L1,5.511 C1,5.787 0.776,6.011 0.5,6.011 C0.223,6.011 0,5.787 0,5.511 Z M13.989,19.5 C13.989,19.223 14.213,19 14.489,19 L19,19 L19,14.489 C19,14.212 19.223,13.989 19.5,13.989 C19.776,13.989 20,14.212 20,14.489 L20,19.5 C20,19.776 19.776,20 19.5,20 L14.489,20 C14.213,20 13.989,19.776 13.989,19.5 Z M0,19.5 L0,14.489 C0,14.212 0.223,13.989 0.5,13.989 C0.776,13.989 1,14.212 1,14.489 L1,19 L5.511,19 C5.788,19 6.011,19.223 6.011,19.5 C6.011,19.776 5.788,20 5.511,20 L0.5,20 C0.223,20 0,19.776 0,19.5 Z M13.989,0.5 C13.989,0.224 14.213,0 14.489,0 L19.5,0 C19.776,0 20,0.224 20,0.5 L20,5.511 C20,5.787 19.776,6.011 19.5,6.011 C19.223,6.011 19,5.787 19,5.511 L19,1 L14.489,1 C14.213,1 13.989,0.776 13.989,0.5 Z" id="path-1"></path>
    </defs>
    <g id="Bloomen" stroke="none" stroke-width="1" fill="none" fill-rule="evenodd">
        <g id="Assets" transform="translate(-487.000000, -367.000000)">
            <g id="project_icons" transform="translate(489.000000, 324.000000)">
                <g id="ic_social_qr_code" transform="translate(0.000000, 45.000000)">
                    <mask id="mask-2" fill="white">
                        <use xlink:href="#path-1"></use>
                    </mask>
                    <use fill="#fff" xlink:href="#path-1"></use>
                </g>
            </g>
        </g>
    </g>
</svg>